#!OML:ASF E:\motion texture\Top Level 1\Subject 1\Session 1\male.ASF
:FULLY-SPECIFIED
:DEGREES
365
root -23.3488 17.6958 3.52477 147.386 -79.8254 -141.511
lowerback -4.47975 3.79133 8.02326
upperback -2.297 4.67527 0.150966
thorax 0.752179 2.27154 -4.06481
lowerneck -15.5999 -0.545408 -5.64074
upperneck 23.6649 1.45832 -4.17176
head 10.1645 -0.484534 -0.361187
rclavicle 1.90958e-014 7.15625e-015
rhumerus -6.98184 -18.6881 -71.5203
rradius 74.4155
rwrist -40.1168
rhand -11.2243 -36.6723
rfingers 7.12502
rthumb 14.8044 -66.1235
lclavicle 1.90958e-014 7.15625e-015
lhumerus -38.6029 -5.69268 95.052
lradius 84.8268
lwrist 9.33846
lhand -2.46383 26.9914
lfingers 7.12502
lthumb 23.2285 55.6106
rfemur 1.7045 3.26989 26.6313
rtibia 38.403
rfoot -3.52872 -0.725226
rtoes -3.68148
lfemur -27.3928 -3.24622 -11.2566
ltibia 23.2224
lfoot 0.927766 2.14799
ltoes 3.53613
366
root -23.526 17.711 3.53455 148.637 -79.9778 -142.961
lowerback -4.37592 3.68933 7.7177
upperback -2.26782 4.56392 0.0948374
thorax 0.692394 2.21769 -3.96775
lowerneck -15.6008 -0.483468 -5.64413
upperneck 23.7315 1.53866 -4.14016
head 10.1877 -0.448217 -0.339691
rclavicle 2.0245e-014 -1.98785e-015
rhumerus -8.07724 -18.181 -71.8477
rradius 75.6882
rwrist -39.5059
rhand -11.4831 -36.7513
rfingers 7.12502
rthumb 14.5551 -66.2207
lclavicle 2.0245e-014 -1.98785e-015
lhumerus -38.3825 -5.7205 95.2188
lradius 84.8424
lwrist 10.5583
lhand -2.83692 27.5485
lfingers 7.12502
lthumb 22.8705 56.2124
rfemur 0.635709 2.83541 25.9088
rtibia 40.8593
rfoot -0.691771 -0.787413
rtoes -2.1901
lfemur -26.6055 -3.28909 -11.8639
ltibia 23.3812
lfoot 0.24417 2.02507
ltoes 3.4499
367
root -23.7004 17.7262 3.54303 150.291 -80.1417 -144.813
lowerback -4.2807 3.57755 7.32339
upperback -2.23273 4.44137 0.0395333
thorax 0.63662 2.15918 -3.82001
lowerneck -15.5989 -0.411807 -5.63755
upperneck 23.8105 1.63208 -4.11838
head 10.2149 -0.406991 -0.321726
rclavicle -8.00729e-015 1.35174e-014
rhumerus -9.13411 -17.6275 -72.2361
rradius 76.9607
rwrist -39.0445
rhand -11.7298 -36.8264
rfingers 7.12502
rthumb 14.3173 -66.3127
lclavicle -8.00729e-015 1.35174e-014
lhumerus -38.1417 -5.78667 95.3887
lradius 84.8785
lwrist 11.9491
lhand -3.21297 28.0517
lfingers 7.12502
lthumb 22.5096 56.7597
rfemur -0.494389 2.42695 25.1489
rtibia 43.3092
rfoot 2.24532 -0.922017
rtoes -0.705223
lfemur -25.7484 -3.32985 -12.5288
ltibia 23.3948
lfoot -0.375606 1.94086
ltoes 3.36511
368
root -23.8725 17.7413 3.55008 152.456 -80.3186 -147.176
lowerback -4.20385 3.45595 6.82677
upperback -2.19021 4.30718 -0.0217768
thorax 0.592059 2.09611 -3.62032
lowerneck -15.5922 -0.332139 -5.61784
upperneck 23.902 1.73611 -4.11054
head 10.246 -0.362215 -0.309601
rclavicle 4.46272e-014 8.74653e-015
rhumerus -10.154 -17.0422 -72.6878
rradius 78.2405
rwrist -38.7143
rhand -11.9523 -36.8754
rfingers 7.12502
rthumb 14.1029 -66.3768
lclavicle 4.46272e-014 8.74653e-015
lhumerus -37.8753 -5.88961 95.5522
lradius 84.9358
lwrist 13.5862
lhand -3.55174 28.4756
lfingers 7.12502
lthumb 22.1844 57.2226
rfemur -1.66927 2.05209 24.3388
rtibia 45.7306
rfoot 5.16581 -1.142
rtoes 0.79783
lfemur -24.8354 -3.37062 -13.2736
ltibia 23.2893
lfoot -0.941294 1.88523
ltoes 3.25605
369
root -24.0423 17.7562 3.55553 155.093 -80.5119 -150.003
lowerback -4.14966 3.32215 6.23884
upperback -2.14567 4.1576 -0.0920688
thorax 0.55682 2.02614 -3.37791
lowerneck -15.5744 -0.245685 -5.58734
upperneck 24.0075 1.84743 -4.10996
head 10.2801 -0.314844 -0.301012
rclavicle -3.68e-014 1.17283e-014
rhumerus -11.1399 -16.4471 -73.2034
rradius 79.5197
rwrist -38.4504
rhand -12.1175 -36.8907
rfingers 7.12502
rthumb 13.9438 -66.4031
lclavicle -3.68e-014 1.17283e-014
lhumerus -37.5806 -6.03112 95.7019
lradius 85.0095
lwrist 15.5352
lhand -3.81267 28.7671
lfingers 7.12502
lthumb 21.9338 57.5436
rfemur -2.88403 1.70057 23.4894
rtibia 48.1127
rfoot 7.93523 -1.50966
rtoes 2.31743
lfemur -23.8909 -3.41791 -14.0931
ltibia 23.0959
lfoot -1.4618 1.85553
ltoes 3.1338
370
root -24.2095 17.7708 3.55928 158.066 -80.718 -153.152
lowerback -4.11193 3.17214 5.58835
upperback -2.10332 3.98686 -0.168288
thorax 0.52511 1.94579 -3.10635
lowerneck -15.5567 -0.155693 -5.54191
upperneck 24.1353 1.96266 -4.12017
head 10.3226 -0.266974 -0.298465
rclavicle -2.72708e-014 -9.93923e-015
rhumerus -12.0924 -15.8604 -73.7831
rradius 80.7846
rwrist -38.1626
rhand -12.2134 -36.8306
rfingers 7.12502
rthumb 13.8513 -66.3493
lclavicle -2.72708e-014 -9.93923e-015
lhumerus -37.2505 -6.20834 95.8293
lradius 85.0964
lwrist 17.8494
lhand -3.95406 28.9691
lfingers 7.12502
lthumb 21.7981 57.7616
rfemur -4.13884 1.34734 22.6273
rtibia 50.4576
rfoot 10.3725 -2.07856
rtoes 3.65091
lfemur -22.9398 -3.4661 -14.9582
ltibia 22.8395
lfoot -1.94603 1.8223
ltoes 3.03115
